<svg xmlns="http://www.w3.org/2000/svg" viewBox="0 0 500 300" fill="none">
  <rect width="500" height="300" fill="#000"/>
  <!-- Simplified architectural sketch placeholder -->
  <g stroke="#fff" stroke-width="0.5" opacity="0.8">
    <!-- Main building outline -->
    <line x1="100" y1="200" x2="400" y2="200"/>
    <line x1="100" y1="200" x2="100" y2="120"/>
    <line x1="400" y1="200" x2="400" y2="100"/>
    <line x1="100" y1="120" x2="200" y2="100"/>
    <line x1="200" y1="100" x2="400" y2="100"/>
    <!-- Vertical lines -->
    <line x1="150" y1="200" x2="150" y2="115"/>
    <line x1="200" y1="200" x2="200" y2="100"/>
    <line x1="250" y1="200" x2="250" y2="100"/>
    <line x1="300" y1="200" x2="300" y2="100"/>
    <line x1="350" y1="200" x2="350" y2="100"/>
    <!-- Horizontal lines -->
    <line x1="100" y1="160" x2="400" y2="160"/>
    <line x1="200" y1="130" x2="400" y2="130"/>
    <!-- Perspective lines -->
    <line x1="100" y1="120" x2="80" y2="100"/>
    <line x1="100" y1="200" x2="80" y2="220"/>
    <line x1="400" y1="100" x2="420" y2="80"/>
    <line x1="400" y1="200" x2="420" y2="220"/>
  </g>
</svg>
