<?xml version="1.0" encoding="UTF-8"?>
<svg id="Layer_2" data-name="Layer 2" xmlns="http://www.w3.org/2000/svg" viewBox="0 0 76.23 19.79">
  <defs>
    <style>
      .cls-1 {
        fill: #fff;
      }
    </style>
  </defs>
  <g id="Layer_1-2" data-name="Layer 1">
    <g>
      <path class="cls-1" d="M16.03,16.64l-1.82-1.82c-2.53,2.19-6.24,2.14-8.71-.09l-1.81,1.82c3.45,3.24,8.85,3.28,12.35.09M9.4,7.57c-1.36.29-2.14,1.62-1.81,2.92.3,1.19,1.53,1.97,2.71,1.75,1.34-.24,2.17-1.51,1.93-2.77-.25-1.31-1.49-2.18-2.84-1.9M11.79,7.35l1.84-1.85c-2.58-2.18-6.42-1.68-8.38.98-1.97,2.68-1.27,6.47,1.55,8.27,2.77,1.77,6.51.87,8.14-2.07,1.19-2.13.91-4.81-.76-6.64l-1.84,1.84c1.08,1.33.9,3.21-.3,4.32-1.24,1.15-3.15,1.1-4.35-.05-1.2-1.16-1.28-3.07-.2-4.33,1.08-1.25,2.92-1.46,4.28-.48M4.95,14.17c-2.14-2.51-2.1-6.1,0-8.55l-1.82-1.82C0,7.24-.02,12.51,3.12,15.99l1.83-1.82ZM14.77,14.27l1.82,1.82c3.26-3.51,3.23-8.93-.02-12.42l-1.82,1.81c2.24,2.49,2.28,6.25.02,8.78M14.19,4.95l1.82-1.82C12.5-.05,7.12,0,3.67,3.24l1.82,1.82c2.46-2.22,6.16-2.28,8.7-.11M8.65,19.71C3.02,18.99-.79,13.74.14,8.24,1.08,2.71,6.42-.95,11.96.22c5.2,1.1,8.58,6.1,7.7,11.33-.87,5.18-5.69,8.83-11.01,8.16"/>
      <path class="cls-1" d="M52.47,12.82c.76-.43,1.22-1.18,1.21-2.03v-.78s-2.7.32-2.7.32c-.97.12-2.26.72-2.01,1.9.25,1.17,2.3,1.25,3.49.58M48.51,10.06c.64-.48,1.35-.76,2.12-.86l3.01-.39c.19-.89-.29-1.78-1.19-2.06-.69-.22-1.43-.22-2.1.05-.61.24-1,.78-.98,1.47h-1.43c-.02-1.22.69-2.23,1.82-2.65,1.09-.4,2.3-.41,3.4,0,1.15.43,1.91,1.48,1.91,2.72v5.81s-1.39,0-1.39,0l-.02-1.19c-.92,1.12-2.28,1.62-3.71,1.43-.7-.1-1.37-.33-1.85-.86-.92-1.02-.73-2.61.4-3.45"/>
      <path class="cls-1" d="M71.86,13.2c1.24-.08,2.25-.79,2.69-1.91.34-.86.36-1.8.05-2.67-.45-1.27-1.61-2.05-2.96-2.04-1.34,0-2.49.8-2.93,2.07-.27.79-.27,1.63-.02,2.44.44,1.36,1.69,2.21,3.16,2.12M75.99,11.46c-.73,2.34-3.08,3.39-5.45,2.9-1.63-.34-2.88-1.55-3.28-3.16-.58-2.36.41-4.87,2.82-5.65,1.06-.34,2.17-.33,3.22.02,2.46.83,3.42,3.52,2.68,5.88"/>
      <path class="cls-1" d="M31.83,14.19c-1.15.4-2.4.38-3.55.04-1.34-.4-2.19-1.57-2.12-2.97h1.34c.02.8.44,1.44,1.16,1.75.84.36,1.82.38,2.66.04.73-.3,1.07-1.13.65-1.8-.4-.62-1.9-.69-2.69-.8-1.38-.19-2.88-.68-2.98-2.32-.06-1.06.48-2,1.48-2.44,1.21-.53,2.67-.53,3.88,0,1.02.45,1.64,1.38,1.62,2.49h-1.36c-.03-.66-.39-1.19-.99-1.45-.82-.35-1.78-.34-2.58.06-.62.32-.91,1.05-.57,1.65.37.64,1.8.7,2.58.8,1.5.2,3.06.71,3.11,2.5.03,1.11-.55,2.05-1.66,2.44"/>
      <path class="cls-1" d="M62.07,13.14c1.05-.23,1.83-.93,2.15-1.94l1.38.18c-.44,2.05-2.45,3.22-4.51,3.09-1.82-.11-3.33-1.27-3.86-3.02-.78-2.55.4-5.46,3.19-6.04,2.22-.46,4.71.65,5.16,3.03l-1.37.19c-.27-.96-.97-1.66-1.92-1.93-1.55-.45-3.15.37-3.67,1.91-.3.88-.28,1.82.05,2.68.52,1.39,1.93,2.17,3.41,1.85"/>
      <path class="cls-1" d="M39.86,13.13v1.12c-.52.15-1.01.23-1.58.21-1.13-.05-2.1-.91-2.11-2.1l-.04-5.59h-1.37s0-1.11,0-1.11h1.38s.32-2.75.32-2.75h1.1s0,2.74,0,2.74h2.16s0,1.11,0,1.11h-2.18s.01,5.3.01,5.3c0,.74.64,1.27,1.33,1.22.34-.02.56-.07.98-.14"/>
      <path class="cls-1" d="M43.12,9.25v4.89s-1.42,0-1.42,0V5.65s1.37,0,1.37,0c.02.43-.04.8.07,1.19.74-1.23,2.13-1.67,3.39-1.16v1.3c-1.01-.34-2.11-.42-2.82.55-.35.47-.59,1.06-.59,1.72"/>
    </g>
  </g>
</svg>