<?xml version="1.0" encoding="UTF-8"?>
<svg id="Layer_2" data-name="Layer 2" xmlns="http://www.w3.org/2000/svg" viewBox="0 0 19.8 19.79">
  <defs>
    <style>
      .cls-1 {
        fill: #fff;
      }
    </style>
  </defs>
  <g id="Layer_1-2" data-name="Layer 1">
    <path class="cls-1" d="M16.03,16.64l-1.82-1.82c-2.53,2.19-6.24,2.14-8.71-.09l-1.81,1.82c3.45,3.24,8.85,3.28,12.35.09M9.4,7.57c-1.36.29-2.14,1.62-1.81,2.92.3,1.19,1.53,1.97,2.71,1.75,1.34-.24,2.17-1.51,1.93-2.77-.25-1.31-1.49-2.18-2.84-1.9M11.79,7.35l1.84-1.85c-2.58-2.18-6.42-1.68-8.38.98-1.97,2.68-1.27,6.47,1.55,8.27,2.77,1.77,6.51.87,8.14-2.07,1.19-2.13.91-4.81-.76-6.64l-1.84,1.84c1.08,1.33.9,3.21-.3,4.32-1.24,1.15-3.15,1.1-4.35-.05-1.2-1.16-1.28-3.07-.2-4.33,1.08-1.25,2.92-1.46,4.28-.48M4.95,14.17c-2.14-2.51-2.1-6.1,0-8.55l-1.82-1.82C0,7.24-.02,12.51,3.12,15.99l1.83-1.82ZM14.77,14.27l1.82,1.82c3.26-3.51,3.23-8.93-.02-12.42l-1.82,1.81c2.24,2.49,2.28,6.25.02,8.78M14.19,4.95l1.82-1.82C12.5-.05,7.12,0,3.67,3.24l1.82,1.82c2.46-2.22,6.16-2.28,8.7-.11M8.65,19.71C3.02,18.99-.79,13.74.14,8.24,1.08,2.71,6.42-.95,11.96.22c5.2,1.1,8.58,6.1,7.7,11.33-.87,5.18-5.69,8.83-11.01,8.16"/>
  </g>
</svg>